<svg width="24" height="24" viewBox="0 0 24 24" fill="none" xmlns="http://www.w3.org/2000/svg">
    <path opacity="0.3" fill-rule="evenodd" clip-rule="evenodd" d="M12 22C17.5228 22 22 17.5228 22 12C22 6.47715 17.5228 2 12 2C6.47715 2 2 6.47715 2 12C2 17.5228 6.47715 22 12 22Z" fill="#D3D3D3"/>
    <path fill-rule="evenodd" clip-rule="evenodd" d="M11.9907 12.5173V12.5164C13.4013 12.5164 14.4222 11.4272 14.4222 10C14.4222 8.57277 13.4013 7.48357 11.9907 7.48357C10.8359 7.48357 9.97192 8.19462 9.68269 9.22051C9.56447 9.63985 9.22449 10 8.78881 10C8.35313 10 7.99179 9.64352 8.07267 9.21542C8.42441 7.35375 10.0133 6 11.9907 6C14.2366 6 15.9999 7.74648 15.9999 10C15.9999 11.9754 14.6451 13.5611 12.7979 13.9225V14.2163C12.7979 14.657 12.4406 15.0143 11.9999 15.0143C11.5592 15.0143 11.2019 14.657 11.2019 14.2163V13.3172C11.2019 12.8791 11.554 12.5233 11.9907 12.5173ZM10.9999 17C10.9999 16.4477 11.4477 16 11.9999 16C12.5522 16 12.9999 16.4477 12.9999 17C12.9999 17.5523 12.5522 18 11.9999 18C11.4477 18 10.9999 17.5523 10.9999 17Z" fill="#7C7C7C"/>
</svg>
