<svg width="24" height="24" viewBox="0 0 24 24" fill="none" xmlns="http://www.w3.org/2000/svg">
    <path opacity="0.3" fill-rule="evenodd" clip-rule="evenodd" d="M12 22C17.5228 22 22 17.5228 22 12C22 6.47715 17.5228 2 12 2C6.47715 2 2 6.47715 2 12C2 17.5228 6.47715 22 12 22Z" fill="#1E96D9"/>
    <path fill-rule="evenodd" clip-rule="evenodd" d="M18.0355 12.0353C18.0355 11.483 17.5878 11.0353 17.0355 11.0353L13.0355 11.0353L13.0355 7.03534C13.0355 6.48305 12.5878 6.03534 12.0355 6.03534C11.4832 6.03534 11.0355 6.48305 11.0355 7.03534L11.0355 11.0353L7.03552 11.0353C6.48324 11.0353 6.03552 11.483 6.03552 12.0353C6.03552 12.5876 6.48324 13.0353 7.03552 13.0353L11.0355 13.0353L11.0355 17.0353C11.0355 17.5876 11.4832 18.0353 12.0355 18.0353C12.5878 18.0353 13.0355 17.5876 13.0355 17.0353V13.0353L17.0355 13.0353C17.5878 13.0353 18.0355 12.5876 18.0355 12.0353Z" fill="#1E96D9"/>
</svg>
