<svg width="24" height="24" viewBox="0 0 24 24" fill="none" xmlns="http://www.w3.org/2000/svg">
    <path opacity="0.3" fill-rule="evenodd" clip-rule="evenodd" d="M12 21C7.02944 21 3 16.9706 3 12C3 7.02944 7.02944 3 12 3C16.9706 3 21 7.02944 21 12C21 16.9706 16.9706 21 12 21Z" stroke="black" stroke-width="2"/>
    <path fill-rule="evenodd" clip-rule="evenodd" d="M11.4644 6.96165C11.4845 6.70115 11.7017 6.5 11.963 6.5H12.0475C12.3043 6.5 12.5194 6.69465 12.545 6.95025L12.9999 11.5L16.248 13.356C16.4038 13.4451 16.4999 13.6107 16.4999 13.7902V13.8454C16.4999 14.1751 16.1865 14.4145 15.8684 14.3278L11.3986 13.1087C11.1672 13.0456 11.0132 12.8271 11.0316 12.588L11.4644 6.96165Z" fill="black"/>
</svg>
