<svg width="18" height="18" viewBox="0 0 18 18" fill="none" xmlns="http://www.w3.org/2000/svg">
    <path d="M6.33333 17V18C6.59855 18 6.8529 17.8946 7.04044 17.7071L6.33333 17ZM1 17H0C0 17.5523 0.447715 18 1 18L1 17ZM1 11.6667L0.292893 10.9596C0.105357 11.1471 0 11.4014 0 11.6667H1ZM17 6.33333L17.7071 7.04044C17.8946 6.8529 18 6.59855 18 6.33333C18 6.06811 17.8946 5.81376 17.7071 5.62622L17 6.33333ZM11.6667 1L12.3738 0.292893C11.9832 -0.097631 11.3501 -0.097631 10.9596 0.292893L11.6667 1ZM7.66666 5L6.95956 4.29289L7.66666 5ZM6.33333 16H1V18H6.33333V16ZM2 17V11.6667H0V17H2ZM17.7071 5.62622L12.3738 0.292893L10.9596 1.70711L16.2929 7.04044L17.7071 5.62622ZM1.70711 12.3738L8.37377 5.70711L6.95956 4.29289L0.292893 10.9596L1.70711 12.3738ZM8.37377 5.70711L12.3738 1.70711L10.9596 0.292893L6.95956 4.29289L8.37377 5.70711ZM7.04044 17.7071L13.7071 11.0404L12.2929 9.62622L5.62622 16.2929L7.04044 17.7071ZM13.7071 11.0404L17.7071 7.04044L16.2929 5.62622L12.2929 9.62622L13.7071 11.0404ZM6.95956 5.70711L12.2929 11.0404L13.7071 9.62622L8.37377 4.29289L6.95956 5.70711Z" fill="#7C7C7C"/>
</svg>
