<svg width="165" height="38" viewBox="0 0 165 40" fill="none" xmlns="http://www.w3.org/2000/svg">
    <path d="M0 29.2683H5.78783V27.9925H1.27783V25.9662H5.78783V24.6904H0V29.2683Z" fill="#41BFE8"/>
    <path d="M0 22.5891H5.78783V21.2382H1.27783V19.287H5.78783V17.9362H0V22.5891Z" fill="#41BFE8"/>
    <path d="M0 11.1069V12.6829L2.55566 14.5591H0V15.8349H5.78783V14.5591H3.08183L5.78783 12.6079V10.8818L2.70599 13.2082L0 11.1069Z" fill="#41BFE8"/>
    <path d="M15.0333 10.9568C12.7032 10.9568 10.373 10.9568 7.96765 10.9568C7.96765 17.1107 7.96765 23.1895 7.96765 29.3433C9.32065 29.3433 10.5985 29.3433 11.9515 29.3433C11.9515 27.3921 11.9515 25.5159 11.9515 23.5647C13.1542 23.5647 14.2817 23.5647 15.4843 23.5647C18.491 23.4897 21.0467 21.3133 21.4977 18.2364C21.7232 16.2852 21.3473 14.4841 19.9192 12.9831C18.6413 11.5572 16.9877 10.9568 15.0333 10.9568ZM15.4843 19.8124C14.3568 19.8874 13.1542 19.8124 12.0267 19.8124C12.0267 18.0863 12.0267 16.3602 12.0267 14.6341C12.1018 14.6341 12.177 14.6341 12.3273 14.6341C13.3797 14.6341 14.432 14.6341 15.4843 14.7092C16.7622 14.8593 17.589 15.9099 17.589 17.2608C17.589 18.6116 16.7622 19.7373 15.4843 19.8124Z" fill="#41BFE8"/>
    <path d="M30.217 7.57975C26.609 9.45592 24.6546 12.6079 23.6775 16.5854C25.5566 16.5854 27.3606 16.5854 29.1646 16.5854C29.315 16.5854 29.5405 16.3602 29.6156 16.2101C31.2693 12.5328 34.9525 10.7317 38.8611 11.8574C41.6423 12.6079 43.3711 14.4841 44.2731 17.3358C40.8906 17.3358 37.5081 17.3358 34.1256 17.3358C34.1256 19.0619 34.1256 20.788 34.1256 22.5141C35.8545 22.5141 37.5081 22.5141 39.1618 22.5141C40.8155 22.5141 42.5443 22.5141 44.198 22.5141C43.2208 26.6417 38.7108 29.1933 34.5015 27.9925C32.021 27.3171 30.3673 25.666 29.4653 23.2645C29.3901 23.1145 29.2398 22.8893 29.0895 22.8893C27.2855 22.8893 25.4815 22.8893 23.6023 22.8893C24.1285 25.8161 25.3311 28.2927 27.4358 30.2439C29.9915 32.6454 33.0733 33.7711 36.531 33.7711C40.139 33.7711 43.4463 32.7205 46.0771 30.1689C50.061 26.3415 51.1885 21.6135 49.9106 16.3602C47.7308 6.90433 37.5081 3.67731 30.217 7.57975Z" fill="#41BFE8"/>
    <path d="M73.513 0C62.4635 0 53.5187 9.00563 53.5187 20.0375C53.5187 24.0901 54.7213 27.7674 56.7508 30.9193H62.6138V25.0657C61.9373 23.4897 61.4863 21.8386 61.4863 20.0375C61.4863 13.3583 66.8232 8.03002 73.513 8.03002C75.317 8.03002 77.0458 8.40525 78.5492 9.15572H84.4122V3.22702C81.2552 1.1257 77.4968 0 73.513 0Z" fill="#41BFE8"/>
    <path d="M84.4122 9.08069V14.9343C85.0887 16.5103 85.5397 18.1614 85.5397 19.9625C85.5397 26.6417 80.2028 31.97 73.513 31.97C71.709 31.97 69.9802 31.5948 68.4768 30.8443H62.6138V36.773C65.7708 38.7993 69.454 40 73.513 40C84.5625 40 93.5073 30.9944 93.5073 19.9625C93.5073 15.91 92.3047 12.2327 90.2752 9.08069H84.4122Z" fill="#41BFE8"/>
    <path d="M100.631 16.2873H99.7021V11.1868C99.795 11.1868 99.9808 11.1868 100.445 11.1868C100.817 11.1868 101.095 11.1868 101.188 11.1868C101.56 11.1868 101.838 11.1868 102.117 11.2796C102.396 11.3723 102.582 11.465 102.767 11.6505C102.953 11.836 103.046 12.0215 103.046 12.2069C103.139 12.3924 103.139 12.5779 103.139 12.8561C103.139 13.3198 102.953 13.6907 102.674 14.0617C102.303 14.3399 101.931 14.5253 101.281 14.5253C101.003 14.5253 100.724 14.5253 100.631 14.5253V16.2873ZM101.281 12.0215C101.188 12.0215 101.003 12.0215 100.631 12.0215V13.598C100.91 13.598 101.095 13.598 101.281 13.598C101.56 13.598 101.838 13.5052 101.931 13.4125C102.117 13.3198 102.21 13.0416 102.21 12.7633C102.21 12.2997 101.931 12.0215 101.281 12.0215Z" fill="#41BFE8"/>
    <path d="M103.789 13.7834C103.789 13.0416 104.068 12.3924 104.532 11.9287C104.997 11.465 105.647 11.1868 106.483 11.1868C107.226 11.1868 107.876 11.465 108.433 11.9287C108.898 12.3924 109.176 13.0416 109.176 13.8762C109.176 14.6181 108.898 15.2672 108.433 15.7309C107.969 16.1946 107.319 16.4728 106.483 16.4728C105.74 16.4728 105.089 16.1946 104.532 15.7309C104.068 15.1745 103.789 14.5253 103.789 13.7834ZM104.718 13.7834C104.718 14.3399 104.904 14.7108 105.182 15.0818C105.554 15.4527 105.925 15.6382 106.39 15.6382C106.947 15.6382 107.319 15.4527 107.597 15.0818C107.876 14.7108 108.062 14.3399 108.062 13.7834C108.062 13.227 107.876 12.8561 107.597 12.4851C107.226 12.1142 106.854 12.0215 106.39 12.0215C105.925 12.0215 105.461 12.2069 105.182 12.4851C104.904 12.8561 104.718 13.227 104.718 13.7834Z" fill="#41BFE8"/>
    <path d="M113.728 15.1745L114.099 15.8237C113.914 16.0092 113.728 16.1019 113.449 16.1946C113.17 16.2874 112.799 16.3801 112.52 16.3801C111.777 16.3801 111.127 16.1019 110.57 15.6382C110.105 15.1745 109.827 14.5254 109.827 13.6907C109.827 12.9488 110.012 12.2997 110.477 11.836C110.941 11.3723 111.591 11.0941 112.427 11.0941C113.078 11.0941 113.635 11.2796 114.006 11.6505L113.635 12.2997C113.263 12.1142 112.892 11.9287 112.52 11.9287C112.056 11.9287 111.684 12.1142 111.313 12.3924C111.034 12.7634 110.848 13.1343 110.848 13.6907C110.848 14.2472 111.034 14.6181 111.313 14.9891C111.684 15.36 112.056 15.4527 112.613 15.4527C112.985 15.5455 113.356 15.4527 113.728 15.1745Z" fill="#41BFE8"/>
    <path d="M118.279 15.1745L118.651 15.8237C118.465 16.0092 118.279 16.1019 118 16.1946C117.722 16.2874 117.35 16.3801 117.072 16.3801C116.329 16.3801 115.678 16.1019 115.121 15.6382C114.657 15.1745 114.378 14.5254 114.378 13.6907C114.378 12.9488 114.564 12.2997 115.028 11.836C115.493 11.3723 116.143 11.0941 116.979 11.0941C117.629 11.0941 118.186 11.2796 118.558 11.6505L118.186 12.2997C117.815 12.1142 117.443 11.9287 117.072 11.9287C116.607 11.9287 116.236 12.1142 115.864 12.3924C115.585 12.7634 115.4 13.1343 115.4 13.6907C115.4 14.2472 115.585 14.6181 115.864 14.9891C116.236 15.36 116.607 15.4527 117.165 15.4527C117.536 15.5455 117.908 15.4527 118.279 15.1745Z" fill="#41BFE8"/>
    <path d="M120.322 16.2873H119.579V11.1868H120.508V14.8035L123.202 11.1868H124.038V16.2873H123.109V12.6706L120.322 16.2873Z" fill="#41BFE8"/>
    <path d="M126.081 16.2873H125.338V11.1868H126.267V14.8036L128.961 11.1868H129.797V16.2873H128.868V12.6706L126.081 16.2873ZM126.081 9.98126H126.917C127.01 10.2595 127.196 10.4449 127.568 10.4449C127.939 10.4449 128.125 10.2595 128.125 9.98126H128.961C128.961 10.2595 128.775 10.5377 128.589 10.7232C128.311 10.9086 127.939 11.0014 127.568 11.0014C127.103 11.0014 126.824 10.9086 126.546 10.7232C126.267 10.5377 126.174 10.2595 126.081 9.98126Z" fill="#41BFE8"/>
    <path d="M134.627 15.1745L134.998 15.8237C134.813 16.0092 134.627 16.1019 134.348 16.1946C134.069 16.2874 133.698 16.3801 133.419 16.3801C132.676 16.3801 132.026 16.1019 131.469 15.6382C131.004 15.1745 130.726 14.5254 130.726 13.6907C130.726 12.9488 130.911 12.2997 131.376 11.836C131.84 11.3723 132.49 11.0941 133.326 11.0941C133.977 11.0941 134.534 11.2796 134.905 11.6505L134.534 12.2997C134.162 12.1142 133.791 11.9287 133.419 11.9287C132.955 11.9287 132.583 12.1142 132.212 12.3924C131.933 12.7634 131.747 13.1343 131.747 13.6907C131.747 14.2472 131.933 14.6181 132.212 14.9891C132.583 15.36 132.955 15.4527 133.512 15.4527C133.884 15.5455 134.255 15.4527 134.627 15.1745Z" fill="#41BFE8"/>
    <path d="M135.834 16.2873V11.1868H136.763V13.598L138.807 11.1868H139.921L137.785 13.598L140.014 16.2873H138.899L136.763 13.6907V16.2873H135.834Z" fill="#41BFE8"/>
    <path d="M141.593 16.2873H140.85V11.1868H141.779V14.8035L144.473 11.1868H145.309V16.2873H144.38V12.6706L141.593 16.2873Z" fill="#41BFE8"/>
    <path d="M147.352 16.2873H146.516V11.1868H147.445V14.8036L150.138 11.1868H150.974V16.2873H150.046V12.6706L147.352 16.2873ZM147.352 9.98126H148.188C148.281 10.2595 148.467 10.4449 148.838 10.4449C149.21 10.4449 149.395 10.2595 149.395 9.98126H150.231C150.231 10.2595 150.046 10.5377 149.86 10.7232C149.581 10.9086 149.21 11.0014 148.838 11.0014C148.374 11.0014 148.095 10.9086 147.816 10.7232C147.538 10.5377 147.445 10.2595 147.352 9.98126Z" fill="#41BFE8"/>
    <path d="M100.352 22.8716V22.037H102.674C102.582 21.5733 102.396 21.2951 102.024 21.0169C101.653 20.8314 101.281 20.646 100.817 20.646C100.352 20.646 99.9808 20.7387 99.6093 21.0169L99.2378 20.3678C99.7022 19.9968 100.259 19.8113 101.003 19.8113C101.746 19.8113 102.396 20.0896 102.86 20.5532C103.325 21.0169 103.603 21.6661 103.603 22.5007C103.603 23.3353 103.325 23.9845 102.86 24.4482C102.396 24.9118 101.746 25.1901 100.91 25.1901C100.538 25.1901 100.259 25.0973 99.8879 25.0046C99.6093 24.9118 99.3306 24.8191 99.1449 24.6336L99.6093 23.8917C99.9808 24.17 100.445 24.3554 100.91 24.3554C101.374 24.3554 101.746 24.2627 102.117 23.9845C102.396 23.7063 102.674 23.4281 102.674 22.9644H100.352V22.8716Z" fill="#41BFE8"/>
    <path d="M104.625 25.0973V19.9968H105.554V22.408L107.597 19.9968H108.712L106.576 22.408L108.805 25.0973H107.69L105.554 22.5007V25.0973H104.625Z" fill="#41BFE8"/>
    <path d="M108.898 22.5007C108.898 21.7588 109.176 21.1096 109.641 20.6459C110.105 20.1823 110.755 19.9041 111.591 19.9041C112.334 19.9041 112.985 20.1823 113.542 20.6459C114.006 21.1096 114.285 21.7588 114.285 22.5934C114.285 23.3353 114.006 23.9845 113.542 24.4481C113.078 24.9118 112.427 25.19 111.591 25.19C110.848 25.19 110.198 24.9118 109.641 24.4481C109.176 23.9845 108.898 23.3353 108.898 22.5007ZM109.827 22.5007C109.827 23.0571 110.012 23.428 110.291 23.799C110.663 24.1699 111.034 24.3554 111.499 24.3554C112.056 24.3554 112.427 24.1699 112.706 23.799C112.985 23.428 113.17 23.0571 113.17 22.5007C113.17 21.9443 112.985 21.5733 112.706 21.2024C112.334 20.8314 111.963 20.7387 111.499 20.7387C111.034 20.7387 110.57 20.9242 110.291 21.2024C110.012 21.5733 109.827 22.037 109.827 22.5007Z" fill="#41BFE8"/>
    <path d="M118.093 25.0973V20.8314H116.607L116.514 21.7588C116.421 22.3152 116.421 22.8716 116.328 23.2426C116.236 23.6135 116.143 23.9845 116.05 24.2627C115.957 24.5409 115.771 24.7264 115.678 24.8191C115.492 24.9118 115.4 25.0046 115.214 25.0973C115.028 25.0973 114.842 25.0973 114.657 25.0973V24.1699C114.749 24.1699 114.842 24.1699 114.935 24.1699C115.028 24.1699 115.121 24.0772 115.214 23.9845C115.307 23.8917 115.4 23.7063 115.493 23.5208C115.585 23.3353 115.678 22.9644 115.678 22.5934C115.771 22.1297 115.771 21.6661 115.864 21.1096L115.957 20.0895H119.208V25.19H118.093V25.0973Z" fill="#41BFE8"/>
    <path d="M120.044 22.5007C120.044 21.7588 120.322 21.1096 120.787 20.6459C121.251 20.1823 121.902 19.9041 122.737 19.9041C123.481 19.9041 124.131 20.1823 124.688 20.6459C125.153 21.1096 125.431 21.7588 125.431 22.5934C125.431 23.3353 125.153 23.9845 124.688 24.4481C124.224 24.9118 123.573 25.19 122.737 25.19C121.994 25.19 121.344 24.9118 120.787 24.4481C120.322 23.9845 120.044 23.3353 120.044 22.5007ZM120.973 22.5007C120.973 23.0571 121.158 23.428 121.437 23.799C121.809 24.1699 122.18 24.3554 122.645 24.3554C123.202 24.3554 123.573 24.1699 123.852 23.799C124.131 23.428 124.317 23.0571 124.317 22.5007C124.317 21.9443 124.131 21.5733 123.852 21.2024C123.481 20.8314 123.109 20.7387 122.645 20.7387C122.18 20.7387 121.716 20.9242 121.437 21.2024C121.158 21.5733 120.973 22.037 120.973 22.5007Z" fill="#41BFE8"/>
    <path d="M126.453 25.0973V19.9968H129.332V20.8314H127.382V25.0973H126.453Z" fill="#41BFE8"/>
    <path d="M130.911 25.0973H130.168V19.9968H131.097V23.6135L133.791 19.9968H134.627V25.0973H133.698V21.4806L130.911 25.0973Z" fill="#41BFE8"/>
    <path d="M139.364 19.9968V25.0973H138.435V22.9644C138.156 23.2426 137.692 23.3353 137.227 23.3353C136.763 23.3353 136.392 23.2426 136.113 22.9644C135.834 22.6862 135.648 22.3152 135.648 21.7588V19.9968H136.577V21.4806C136.577 22.2225 136.856 22.5007 137.506 22.5007C137.878 22.5007 138.156 22.4079 138.528 22.1297V19.9041H139.364V19.9968Z" fill="#41BFE8"/>
    <path d="M140.757 25.0973V19.9968H143.729V20.8314H141.686V22.037H143.544V22.8717H141.686V24.17H143.822V25.0046H140.757V25.0973Z" fill="#41BFE8"/>
    <path d="M148.559 23.8917L148.931 24.5409C148.745 24.7264 148.559 24.8191 148.281 24.9118C148.002 25.0046 147.631 25.0973 147.352 25.0973C146.609 25.0973 145.959 24.8191 145.401 24.3554C144.937 23.8917 144.658 23.2426 144.658 22.408C144.658 21.6661 144.844 21.0169 145.308 20.5532C145.773 20.0896 146.423 19.8113 147.259 19.8113C147.909 19.8113 148.467 19.9968 148.838 20.3678L148.467 21.0169C148.095 20.8314 147.723 20.646 147.352 20.646C146.888 20.646 146.516 20.8314 146.144 21.1097C145.866 21.4806 145.68 21.8515 145.68 22.408C145.68 22.9644 145.866 23.3353 146.144 23.7063C146.516 24.0772 146.888 24.17 147.445 24.17C147.723 24.3554 148.188 24.17 148.559 23.8917Z" fill="#41BFE8"/>
    <path d="M149.767 25.0973V19.9968H150.696V22.408L152.739 19.9968H153.854L151.718 22.408L153.947 25.0973H152.832L150.696 22.5007V25.0973H149.767Z" fill="#41BFE8"/>
    <path d="M155.433 25.0973H154.69V19.9968H155.619V23.6135L158.312 19.9968H159.055V25.0973H158.126V21.4806L155.433 25.0973Z" fill="#41BFE8"/>
    <path d="M161.285 25.0973H160.542V19.9968H161.47V23.6135L164.164 19.9968H165V25.0973H164.071V21.4806L161.285 25.0973ZM161.285 18.6985H162.121C162.213 18.9767 162.399 19.1622 162.771 19.1622C163.142 19.1622 163.328 18.9767 163.328 18.6985H164.164C164.164 18.9767 163.978 19.2549 163.793 19.4404C163.514 19.6258 163.142 19.7186 162.771 19.7186C162.306 19.7186 162.028 19.6258 161.749 19.4404C161.47 19.2549 161.285 19.0694 161.285 18.6985Z" fill="#41BFE8"/>
    <path d="M99.3306 31.3107C99.3306 30.5688 99.6092 29.9196 100.074 29.4559C100.538 28.9923 101.188 28.7141 102.024 28.7141C102.767 28.7141 103.418 28.9923 103.975 29.4559C104.439 29.9196 104.718 30.5688 104.718 31.4034C104.718 32.1453 104.439 32.7945 103.975 33.2581C103.51 33.7218 102.86 34 102.024 34C101.281 34 100.631 33.7218 100.074 33.2581C99.6092 32.7017 99.3306 32.0526 99.3306 31.3107ZM100.259 31.3107C100.259 31.8671 100.445 32.238 100.724 32.609C101.095 32.9799 101.467 33.1654 101.931 33.1654C102.489 33.1654 102.86 32.9799 103.139 32.609C103.417 32.238 103.603 31.8671 103.603 31.3107C103.603 30.7543 103.417 30.3833 103.139 30.0124C102.767 29.6414 102.396 29.5487 101.931 29.5487C101.467 29.5487 101.003 29.7342 100.724 30.0124C100.445 30.2906 100.259 30.7543 100.259 31.3107Z" fill="#41BFE8"/>
    <path d="M108.898 33.8146V29.5487H106.576V33.8146H105.647V28.7141H109.734V33.8146H108.898Z" fill="#41BFE8"/>
    <path d="M111.22 33.8146V28.7141H114.192V29.5487H112.149V30.847H114.006V31.6816H112.149V32.9799H114.285V33.8146H111.22Z" fill="#41BFE8"/>
    <path d="M116.329 33.8146H115.4V28.7141C115.493 28.7141 115.678 28.7141 116.143 28.7141C116.514 28.7141 116.793 28.7141 116.886 28.7141C117.257 28.7141 117.536 28.7141 117.815 28.8068C118.093 28.8995 118.279 28.9923 118.465 29.1777C118.651 29.3632 118.744 29.5487 118.744 29.7342C118.836 29.9196 118.836 30.1051 118.836 30.3833C118.836 30.847 118.651 31.2179 118.372 31.5889C118 31.8671 117.629 32.0526 116.979 32.0526C116.7 32.0526 116.421 32.0526 116.329 32.0526V33.8146ZM116.979 29.5487C116.886 29.5487 116.7 29.5487 116.329 29.5487V31.1252C116.607 31.1252 116.793 31.1252 116.979 31.1252C117.257 31.1252 117.536 31.0325 117.629 30.9397C117.815 30.847 117.908 30.5688 117.908 30.2906C117.908 29.8269 117.629 29.5487 116.979 29.5487Z" fill="#41BFE8"/>
    <path d="M118.743 33.8146L120.88 28.7141H121.623L123.759 33.8146H122.83L122.273 32.5163H120.044L119.487 33.8146H118.743ZM121.344 29.8269L120.601 31.6816H122.087L121.344 29.8269Z" fill="#41BFE8"/>
    <path d="M123.574 29.5487V28.7141H127.753V29.5487H126.081V33.8146H125.153V29.5487H123.574Z" fill="#41BFE8"/>
    <path d="M127.939 31.3107C127.939 30.5688 128.218 29.9196 128.682 29.4559C129.146 28.9923 129.797 28.7141 130.633 28.7141C131.376 28.7141 132.026 28.9923 132.583 29.4559C133.048 29.9196 133.326 30.5688 133.326 31.4034C133.326 32.1453 133.048 32.7945 132.583 33.2581C132.119 33.7218 131.469 34 130.633 34C129.89 34 129.239 33.7218 128.682 33.2581C128.218 32.7017 127.939 32.0526 127.939 31.3107ZM128.868 31.3107C128.868 31.8671 129.054 32.238 129.332 32.609C129.704 32.9799 130.075 33.1654 130.54 33.1654C131.097 33.1654 131.469 32.9799 131.747 32.609C132.026 32.238 132.212 31.8671 132.212 31.3107C132.212 30.7543 132.026 30.3833 131.747 30.0124C131.376 29.6414 131.004 29.5487 130.54 29.5487C130.075 29.5487 129.611 29.7342 129.332 30.0124C129.054 30.2906 128.868 30.7543 128.868 31.3107Z" fill="#41BFE8"/>
    <path d="M135.184 33.8146H134.255V28.7141C134.348 28.7141 134.534 28.7141 134.998 28.7141C135.37 28.7141 135.648 28.7141 135.741 28.7141C136.113 28.7141 136.392 28.7141 136.67 28.8068C136.949 28.8995 137.135 28.9923 137.32 29.1777C137.506 29.3632 137.599 29.5487 137.599 29.7342C137.692 29.9196 137.692 30.1051 137.692 30.3833C137.692 30.847 137.506 31.2179 137.227 31.5889C136.856 31.8671 136.484 32.0526 135.834 32.0526C135.556 32.0526 135.277 32.0526 135.184 32.0526V33.8146ZM135.834 29.5487C135.741 29.5487 135.556 29.5487 135.184 29.5487V31.1252C135.463 31.1252 135.648 31.1252 135.834 31.1252C136.113 31.1252 136.392 31.0325 136.484 30.9397C136.67 30.847 136.763 30.5688 136.763 30.2906C136.763 29.8269 136.484 29.5487 135.834 29.5487Z" fill="#41BFE8"/>
</svg>
