<svg width="135" height="38" viewBox="0 0 135 38" fill="none" xmlns="http://www.w3.org/2000/svg">
<path d="M8.7113 15.7573H11.4622C13.2962 15.7573 14.0604 16.8213 14.0604 18.24C14.0604 19.8613 12.9396 20.672 11.3094 20.672H10.1887V23.2053H8.7113V15.7573ZM11.2075 19.3547C12.1245 19.3547 12.583 18.8987 12.583 18.1893C12.583 17.48 12.1245 17.024 11.3094 17.024H10.1887V19.304H11.2075V19.3547Z" fill="#3CBFAD"/>
<path d="M22.1604 19.5067C22.1604 22.0907 20.4793 23.256 18.4925 23.256C17.3718 23.256 16.2001 22.9013 15.4359 22.1413L16.251 20.976C16.8114 21.5333 17.6774 21.888 18.4416 21.888C19.6642 21.888 20.4793 21.1787 20.5812 20.064H17.2189V18.7973H20.5812C20.3774 17.6827 19.5623 17.024 18.3397 17.024C17.6265 17.024 16.9642 17.2267 16.4038 17.632L15.5887 16.5173C16.251 16.0107 17.3208 15.656 18.3397 15.656C20.8359 15.7067 22.1604 17.2267 22.1604 19.5067Z" fill="#3CBFAD"/>
<path d="M23.9434 19.5067C23.9434 17.2773 25.4717 15.7067 27.7641 15.7067C29.9547 15.7067 31.5849 17.2267 31.5849 19.5067C31.5849 21.7867 29.9547 23.3067 27.7641 23.3067C25.5226 23.3067 23.9434 21.736 23.9434 19.5067ZM30.0056 19.5067C30.0056 18.088 29.0377 17.0747 27.7641 17.0747C26.4396 17.0747 25.4717 18.1387 25.4717 19.5067C25.4717 20.8747 26.3886 21.9387 27.7641 21.9387C29.0377 21.9387 30.0056 20.9253 30.0056 19.5067Z" fill="#3CBFAD"/>
<path d="M3.0056 24.1173L4.63578 24.472C4.78861 24.472 4.94144 24.32 4.8905 24.168C4.58484 23.3573 4.33012 22.344 4.17729 21.4826C4.12635 21.3306 4.02446 21.2293 3.87163 21.128C3.3622 20.9253 2.85276 20.672 2.44522 20.52C2.24144 20.4186 2.03767 20.4693 1.88484 20.5706C1.57918 20.824 1.12069 21.2293 0.764086 21.5333C0.509369 21.736 0.509368 21.888 0.560311 22.2426C0.764085 23.3066 1.0188 24.4213 1.37541 25.4346C1.42635 25.6373 1.68107 25.6373 1.78295 25.536L2.69993 24.2186C2.75088 24.1173 2.90371 24.1173 3.0056 24.1173Z" fill="#3CBFAD"/>
<path d="M35.7622 13.8827L34.132 13.528C33.9792 13.528 33.8264 13.68 33.8773 13.832C34.183 14.6427 34.4377 15.656 34.5905 16.5174C34.6415 16.6694 34.7433 16.7707 34.8962 16.872C35.4056 17.0747 35.915 17.328 36.3226 17.48C36.5264 17.5814 36.7301 17.5307 36.883 17.4294C37.1886 17.176 37.6471 16.7707 38.0037 16.4667C38.2584 16.264 38.2584 16.112 38.2075 15.7574C38.0037 14.6934 37.749 13.5787 37.3924 12.5654C37.3414 12.3627 37.0867 12.3627 36.9848 12.464L36.0679 13.7814C36.0169 13.8827 35.8641 13.8827 35.7622 13.8827Z" fill="#3CBFAD"/>
<path d="M36.1698 9.82933C32.9603 4.00267 26.7962 0.101333 19.5113 0H19.4603H19.4094H19.3585H19.3075C9.52638 0.0506667 1.47732 7.54933 0.254683 16.872C0.203739 17.1253 0.407512 17.2267 0.560342 17.1253C0.916946 16.9227 1.78298 16.4667 1.78298 16.4667C2.08864 16.3147 2.24147 16.264 2.59808 16.5173L3.66789 17.4293C3.82072 17.5307 4.02449 17.48 4.02449 17.2267C5.34902 9.62667 11.5132 3.90133 19.2566 3.8C19.3075 3.8 19.3585 3.8 19.3585 3.8C25.2169 3.8 30.2094 6.94133 32.8075 11.704C32.8585 11.8053 33.0113 11.9067 33.1641 11.9067L34.9471 12.1093C35.1 12.1093 35.3037 12.008 35.4056 11.9067L36.1698 10.4373C36.2717 10.184 36.2717 9.98133 36.1698 9.82933Z" fill="#3CBFAD"/>
<path d="M38.1566 20.8747C37.8 21.0773 36.9339 21.5333 36.9339 21.5333C36.6283 21.6853 36.4754 21.736 36.1188 21.4827L35.049 20.5707C34.8962 20.4693 34.6924 20.52 34.6924 20.7733C33.3679 28.3733 27.2547 34.0987 19.5113 34.2C19.4603 34.2 19.4094 34.2 19.4094 34.2C13.5509 34.2 8.55845 31.0587 5.96034 26.296C5.9094 26.1947 5.75657 26.0933 5.60374 26.0933L3.82072 25.8907C3.66789 25.8907 3.46411 25.992 3.36223 26.0933L2.59808 27.5627C2.49619 27.7147 2.49619 27.9173 2.54713 28.0693C5.80751 33.9973 11.9717 37.8987 19.2566 38H19.3075H19.3585H19.4094H19.4603C29.2415 37.9493 37.2905 30.4507 38.5132 21.128C38.5132 20.8747 38.3094 20.824 38.1566 20.8747Z" fill="#3CBFAD"/>
</svg>
