<svg width="165" height="38" viewBox="0 0 177 46" fill="none" xmlns="http://www.w3.org/2000/svg">
    <path d="M-0.00012207 33.5086H6.61718V31.966H1.39299V29.7379H6.61718V28.1953H-0.00012207V33.5086Z" fill="black"/>
    <path d="M-0.00012207 25.796H6.61718V24.3391H1.39299V22.0253H6.61718V20.5684H-0.00012207V25.796Z" fill="black"/>
    <path d="M0 12.6831V14.4828L2.87331 16.6252H0V18.1678H6.6173V16.6252H3.48279L6.6173 14.397V12.5117L3.04744 15.1684L0 12.6831Z" fill="black"/>
    <path d="M17.4138 12.5117C14.7147 12.5117 12.0155 12.5117 9.22931 12.5117C9.22931 19.5391 9.22931 26.4806 9.22931 33.5079C10.7965 33.5079 12.2768 33.5079 13.844 33.5079C13.844 31.2797 13.844 29.1373 13.844 26.9091C15.2371 26.9091 16.5432 26.9091 17.9363 26.9091C21.4191 26.8234 24.3795 24.3381 24.9018 20.8245C25.1631 18.5963 24.7277 16.5396 23.0734 14.8256C21.5932 13.1973 19.5906 12.5117 17.4138 12.5117ZM17.9363 22.7099C16.6303 22.7956 15.2371 22.7099 13.9311 22.7099C13.9311 20.7388 13.9311 18.7677 13.9311 16.7967C14.0181 16.7967 14.1052 16.7967 14.2793 16.7967C15.4984 16.7967 16.7173 16.7967 17.9363 16.8824C19.4165 17.0538 20.3742 18.2536 20.3742 19.7962C20.2872 21.253 19.3294 22.5384 17.9363 22.7099Z" fill="black"/>
    <path d="M35.0018 8.65513C30.8224 10.7976 28.5586 14.3969 27.4267 18.939C29.6035 18.939 31.6932 18.939 33.7828 18.939C33.957 18.939 34.2182 18.6819 34.3052 18.5105C36.2208 14.3112 40.4872 12.2544 45.0148 13.54C48.2364 14.3969 50.239 16.5394 51.2838 19.796C47.3657 19.796 43.4476 19.796 39.5294 19.796C39.5294 21.767 39.5294 23.7381 39.5294 25.7091C41.532 25.7091 43.4476 25.7091 45.363 25.7091C47.2786 25.7091 49.2812 25.7091 51.1968 25.7091C50.0649 30.4226 44.8407 33.3363 39.9647 31.9651C37.0915 31.1939 35.1759 29.3085 34.1311 26.5661C34.044 26.3947 33.8699 26.1376 33.6957 26.1376C31.6061 26.1376 29.5164 26.1376 27.3397 26.1376C27.9491 29.4799 29.3422 32.308 31.7802 34.5361C34.7405 37.2785 38.3105 38.564 42.3156 38.564C46.495 38.564 50.3261 37.3642 53.3735 34.4504C57.9882 30.0798 59.2942 24.6808 57.8141 18.6819C55.2891 7.96953 43.4476 4.1988 35.0018 8.65513Z" fill="black"/>
    <path d="M85.1542 0C72.355 0 61.9937 10.2838 61.9937 22.8816C61.9937 27.5093 63.3868 31.7085 65.7377 35.3078H72.5291V28.6234C71.7455 26.8237 71.2231 24.9384 71.2231 22.8816C71.2231 15.2544 77.4051 9.16976 85.1542 9.16976C87.2439 9.16976 89.2465 9.59825 90.9879 10.4552H97.7794V3.68504C94.1224 1.37118 89.7689 0 85.1542 0Z" fill="black"/>
    <path d="M97.6921 10.4551V17.1396C98.4757 18.9392 98.9981 20.8247 98.9981 22.8814C98.9981 30.5086 92.8161 36.5932 85.0669 36.5932C82.9772 36.5932 80.9746 36.1647 79.2333 35.3077H72.4418V42.0779C76.0988 44.3917 80.3652 45.7629 85.0669 45.7629C97.8662 45.7629 108.228 35.4791 108.228 22.8814C108.228 18.2536 106.834 14.0544 104.484 10.4551H97.6921Z" fill="black"/>
    <path d="M116.238 17.3111H115.367V12.5977C115.455 12.5977 115.629 12.5977 116.064 12.5977C116.412 12.5977 116.674 12.5977 116.76 12.5977C117.108 12.5977 117.37 12.5977 117.631 12.6833C117.893 12.769 118.067 12.8548 118.241 13.0261C118.415 13.1975 118.501 13.3689 118.501 13.5404C118.589 13.7117 118.589 13.8831 118.589 14.1402C118.589 14.5687 118.415 14.9115 118.153 15.2543C117.805 15.5114 117.457 15.6828 116.848 15.6828C116.586 15.6828 116.325 15.6828 116.238 15.6828V17.3111ZM116.76 13.3689C116.674 13.3689 116.5 13.3689 116.151 13.3689V14.8258C116.412 14.8258 116.586 14.8258 116.76 14.8258C117.022 14.8258 117.283 14.7401 117.37 14.6544C117.544 14.5687 117.631 14.3116 117.631 14.0545C117.718 13.626 117.37 13.3689 116.76 13.3689Z" fill="black"/>
    <path d="M119.199 14.9114C119.199 14.2258 119.46 13.6258 119.895 13.1973C120.33 12.7688 120.94 12.5117 121.723 12.5117C122.42 12.5117 123.03 12.7688 123.552 13.1973C123.987 13.6258 124.248 14.2258 124.248 14.997C124.248 15.6826 123.987 16.2824 123.552 16.711C123.116 17.1395 122.507 17.3965 121.723 17.3965C121.027 17.3965 120.418 17.1395 119.895 16.711C119.373 16.2824 119.199 15.6826 119.199 14.9114ZM120.07 14.9114C120.07 15.4255 120.244 15.7683 120.504 16.1111C120.853 16.4539 121.201 16.6253 121.637 16.6253C122.159 16.6253 122.507 16.4539 122.768 16.1111C123.03 15.7683 123.204 15.4255 123.204 14.9114C123.204 14.3971 123.03 14.0543 122.768 13.7115C122.42 13.3687 122.071 13.2831 121.637 13.2831C121.201 13.2831 120.766 13.4544 120.504 13.7115C120.156 14.0543 120.07 14.4828 120.07 14.9114Z" fill="black"/>
    <path d="M128.427 16.1965L128.776 16.7965C128.601 16.9678 128.427 17.0535 128.167 17.1392C127.905 17.225 127.557 17.3106 127.296 17.3106C126.599 17.3106 125.99 17.0535 125.467 16.625C125.032 16.1965 124.771 15.5966 124.771 14.8253C124.771 14.1397 124.945 13.5399 125.381 13.1114C125.815 12.6829 126.425 12.4258 127.208 12.4258C127.818 12.4258 128.341 12.5972 128.689 12.94L128.341 13.5399C127.992 13.3685 127.644 13.1971 127.296 13.1971C126.86 13.1971 126.512 13.3685 126.164 13.6256C125.903 13.9683 125.729 14.3112 125.729 14.8253C125.729 15.3395 125.903 15.6824 126.164 16.0251C126.512 16.3679 126.86 16.4536 127.383 16.4536C127.731 16.625 128.079 16.4536 128.427 16.1965Z" fill="black"/>
    <path d="M132.781 16.1965L133.13 16.7965C132.956 16.9678 132.781 17.0535 132.52 17.1392C132.259 17.225 131.911 17.3106 131.649 17.3106C130.953 17.3106 130.344 17.0535 129.821 16.625C129.386 16.1965 129.124 15.5966 129.124 14.8253C129.124 14.1397 129.298 13.5399 129.734 13.1114C130.17 12.6829 130.778 12.4258 131.563 12.4258C132.171 12.4258 132.694 12.5972 133.042 12.94L132.694 13.5399C132.346 13.3685 131.997 13.1971 131.649 13.1971C131.214 13.1971 130.866 13.3685 130.518 13.6256C130.256 13.9683 130.082 14.3112 130.082 14.8253C130.082 15.3395 130.256 15.6824 130.518 16.0251C130.866 16.3679 131.214 16.4536 131.737 16.4536C131.997 16.625 132.433 16.4536 132.781 16.1965Z" fill="black"/>
    <path d="M134.61 17.3111H133.913V12.5977H134.784V15.9399L137.309 12.5977H138.005V17.3111H137.134V13.9688L134.61 17.3111Z" fill="black"/>
    <path d="M140.095 17.3117H139.312V12.5983H140.182V15.9405L142.708 12.5983H143.491V17.3117H142.62V13.9694L140.095 17.3117ZM140.095 11.3984H140.879C140.966 11.6555 141.14 11.8269 141.489 11.8269C141.837 11.8269 142.011 11.6555 142.011 11.3984H142.794C142.794 11.6555 142.62 11.9127 142.446 12.084C142.185 12.2554 141.837 12.3411 141.489 12.3411C141.053 12.3411 140.792 12.2554 140.531 12.084C140.27 11.9983 140.095 11.7413 140.095 11.3984Z" fill="black"/>
    <path d="M148.105 16.1965L148.454 16.7965C148.279 16.9678 148.105 17.0535 147.845 17.1392C147.583 17.225 147.235 17.3106 146.974 17.3106C146.278 17.3106 145.668 17.0535 145.145 16.625C144.709 16.1965 144.449 15.5966 144.449 14.8253C144.449 14.1397 144.623 13.5399 145.058 13.1114C145.494 12.6829 146.103 12.4258 146.887 12.4258C147.496 12.4258 148.019 12.5972 148.367 12.94L148.019 13.5399C147.671 13.3685 147.322 13.1971 146.974 13.1971C146.538 13.1971 146.19 13.3685 145.842 13.6256C145.581 13.9683 145.407 14.3112 145.407 14.8253C145.407 15.3395 145.581 15.6824 145.842 16.0251C146.19 16.3679 146.538 16.4536 147.061 16.4536C147.409 16.625 147.757 16.4536 148.105 16.1965Z" fill="black"/>
    <path d="M149.238 17.3111V12.5977H150.108V14.8258L152.024 12.5977H153.068L151.066 14.8258L153.156 17.3111H152.111L150.108 14.9115V17.3111H149.238Z" fill="black"/>
    <path d="M154.549 17.3111H153.852V12.5977H154.723V15.9399L157.248 12.5977H158.031V17.3111H157.161V13.9688L154.549 17.3111Z" fill="black"/>
    <path d="M160.034 17.3117H159.338V12.5983H160.209V15.9405L162.734 12.5983H163.43V17.3117H162.56V13.9694L160.034 17.3117ZM160.034 11.3984H160.817C160.905 11.6555 161.079 11.8269 161.427 11.8269C161.776 11.8269 161.95 11.6555 161.95 11.3984H162.734C162.734 11.6555 162.56 11.9127 162.386 12.084C162.124 12.2554 161.776 12.3411 161.427 12.3411C160.992 12.3411 160.731 12.2554 160.469 12.084C160.209 11.9983 160.034 11.7413 160.034 11.3984Z" fill="black"/>
    <path d="M115.977 23.3964V22.6251H118.153C118.067 22.1966 117.892 21.9396 117.544 21.6824C117.196 21.511 116.848 21.3396 116.412 21.3396C115.977 21.3396 115.629 21.4253 115.281 21.6824L114.932 21.0825C115.367 20.7397 115.89 20.5684 116.586 20.5684C117.283 20.5684 117.892 20.8255 118.327 21.254C118.763 21.6824 119.025 22.2823 119.025 23.0536C119.025 23.8249 118.763 24.4247 118.327 24.8533C117.892 25.2818 117.283 25.5388 116.499 25.5388C116.151 25.5388 115.89 25.4532 115.541 25.3674C115.281 25.2818 115.019 25.1961 114.845 25.0247L115.193 24.3391C115.541 24.5962 115.977 24.7676 116.412 24.7676C116.848 24.7676 117.196 24.6818 117.544 24.4247C117.805 24.1677 118.067 23.9106 118.067 23.4821H115.977V23.3964Z" fill="black"/>
    <path d="M119.982 25.3658V20.6523H120.852V22.8805L122.768 20.6523H123.813L121.811 22.8805L123.9 25.3658H122.768L120.766 22.9662V25.3658H119.982Z" fill="black"/>
    <path d="M123.988 23.0519C123.988 22.3663 124.248 21.7664 124.684 21.3379C125.119 20.9095 125.729 20.6523 126.512 20.6523C127.209 20.6523 127.818 20.9095 128.341 21.3379C128.776 21.7664 129.037 22.3663 129.037 23.1376C129.037 23.8232 128.776 24.4231 128.341 24.8516C127.905 25.28 127.296 25.5372 126.512 25.5372C125.816 25.5372 125.207 25.28 124.684 24.8516C124.162 24.3373 123.988 23.7375 123.988 23.0519ZM124.858 23.0519C124.858 23.5661 125.032 23.9089 125.293 24.2517C125.641 24.5944 125.99 24.7659 126.425 24.7659C126.948 24.7659 127.296 24.5944 127.557 24.2517C127.818 23.9089 127.993 23.5661 127.993 23.0519C127.993 22.5377 127.818 22.1949 127.557 21.8522C127.209 21.5093 126.86 21.4236 126.425 21.4236C125.99 21.4236 125.555 21.5951 125.293 21.8522C124.945 22.1092 124.858 22.5377 124.858 23.0519Z" fill="black"/>
    <path d="M132.608 25.3661V21.4239H131.215L131.127 22.2808C131.04 22.7951 131.04 23.3093 130.953 23.652C130.866 23.9949 130.779 24.3376 130.692 24.5947C130.605 24.8519 130.43 25.0232 130.344 25.109C130.17 25.1946 130.082 25.2803 129.908 25.3661C129.734 25.3661 129.56 25.3661 129.386 25.3661V24.5091C129.473 24.5091 129.56 24.5091 129.647 24.5091C129.734 24.5091 129.822 24.4234 129.908 24.3376C129.996 24.252 130.082 24.0805 130.17 23.9091C130.256 23.7378 130.344 23.3949 130.344 23.0522C130.43 22.6237 130.43 22.1952 130.518 21.681L130.605 20.7383H133.652V25.4517H132.608V25.3661Z" fill="black"/>
    <path d="M134.348 23.0519C134.348 22.3663 134.609 21.7664 135.045 21.3379C135.481 20.9095 136.09 20.6523 136.874 20.6523C137.57 20.6523 138.179 20.9095 138.702 21.3379C139.137 21.7664 139.398 22.3663 139.398 23.1376C139.398 23.8232 139.137 24.4231 138.702 24.8516C138.267 25.28 137.657 25.5372 136.874 25.5372C136.177 25.5372 135.567 25.28 135.045 24.8516C134.609 24.3373 134.348 23.7375 134.348 23.0519ZM135.307 23.0519C135.307 23.5661 135.481 23.9089 135.741 24.2517C136.09 24.5944 136.438 24.7659 136.874 24.7659C137.396 24.7659 137.744 24.5944 138.005 24.2517C138.267 23.9089 138.441 23.5661 138.441 23.0519C138.441 22.5377 138.267 22.1949 138.005 21.8522C137.657 21.5093 137.309 21.4236 136.874 21.4236C136.438 21.4236 136.003 21.5951 135.741 21.8522C135.393 22.1092 135.307 22.5377 135.307 23.0519Z" fill="black"/>
    <path d="M140.356 25.3658V20.6523H143.056V21.4236H141.227V25.3658H140.356Z" fill="black"/>
    <path d="M144.535 25.3658H143.839V20.6523H144.709V23.9946L147.235 20.6523H148.019V25.3658H147.148V22.0235L144.535 25.3658Z" fill="black"/>
    <path d="M152.46 20.654V25.3674H151.589V23.3964C151.327 23.6535 150.892 23.7392 150.457 23.7392C150.021 23.7392 149.673 23.6535 149.412 23.3964C149.15 23.1393 148.976 22.7965 148.976 22.2823V20.654H149.847V22.0252C149.847 22.7108 150.108 22.9679 150.717 22.9679C151.067 22.9679 151.327 22.8822 151.676 22.6251V20.5684H152.46V20.654Z" fill="black"/>
    <path d="M153.852 25.3658V20.6523H156.638V21.4236H154.723V22.6234H156.464V23.3947H154.723V24.5944H156.726V25.3658H153.852Z" fill="black"/>
    <path d="M161.079 24.3391L161.427 24.9389C161.253 25.1103 161.079 25.1961 160.817 25.2818C160.557 25.3674 160.208 25.4532 159.947 25.4532C159.25 25.4532 158.641 25.1961 158.119 24.7676C157.683 24.3391 157.422 23.7392 157.422 22.9679C157.422 22.2823 157.596 21.6824 158.031 21.254C158.467 20.8255 159.076 20.5684 159.86 20.5684C160.469 20.5684 160.991 20.7397 161.34 21.0825L160.991 21.6824C160.643 21.511 160.295 21.3396 159.947 21.3396C159.512 21.3396 159.164 21.511 158.815 21.7681C158.554 22.1109 158.38 22.4537 158.38 22.9679C158.38 23.4821 158.554 23.8249 158.815 24.1677C159.164 24.5105 159.512 24.5962 160.034 24.5962C160.382 24.6818 160.731 24.5962 161.079 24.3391Z" fill="black"/>
    <path d="M162.211 25.3658V20.6523H163.082V22.8805L164.997 20.6523H166.042L164.039 22.8805L166.129 25.3658H165.084L163.082 22.9662V25.3658H162.211Z" fill="black"/>
    <path d="M167.609 25.3658H166.912V20.6523H167.783V23.9946L170.308 20.6523H171.091V25.3658H170.221V22.0235L167.609 25.3658Z" fill="black"/>
    <path d="M173.008 25.3666H172.224V20.6531H173.094V23.9954L175.62 20.6531H176.403V25.3666H175.532V22.0243L173.008 25.3666ZM173.008 19.5391H173.791C173.879 19.7962 174.053 19.9675 174.401 19.9675C174.749 19.9675 174.923 19.7962 174.923 19.5391H175.706C175.706 19.7962 175.532 20.0532 175.358 20.2247C175.097 20.396 174.749 20.4817 174.401 20.4817C173.965 20.4817 173.704 20.396 173.443 20.2247C173.182 20.0532 173.094 19.7962 173.008 19.5391Z" fill="black"/>
    <path d="M115.019 31.1086C115.019 30.423 115.281 29.8231 115.716 29.3946C116.151 28.9661 116.76 28.709 117.544 28.709C118.241 28.709 118.851 28.9661 119.373 29.3946C119.808 29.8231 120.07 30.423 120.07 31.1943C120.07 31.8799 119.808 32.4797 119.373 32.9083C118.937 33.3368 118.327 33.5938 117.544 33.5938C116.848 33.5938 116.238 33.3368 115.716 32.9083C115.193 32.3941 115.019 31.8799 115.019 31.1086ZM115.89 31.1086C115.89 31.6227 116.064 31.9656 116.325 32.3083C116.674 32.6512 117.022 32.8226 117.457 32.8226C117.979 32.8226 118.327 32.6512 118.589 32.3083C118.851 31.9656 119.025 31.6227 119.025 31.1086C119.025 30.5944 118.851 30.2516 118.589 29.9088C118.241 29.566 117.893 29.4803 117.457 29.4803C117.022 29.4803 116.586 29.6517 116.325 29.9088C116.064 30.2516 115.89 30.5944 115.89 31.1086Z" fill="black"/>
    <path d="M123.988 33.5084V29.5663H121.811V33.5084H120.94V28.7949H124.771V33.5084H123.988Z" fill="black"/>
    <path d="M126.077 33.5084V28.7949H128.863V29.5663H126.948V30.7661H128.689V31.5373H126.948V32.7371H128.95V33.5084H126.077Z" fill="black"/>
    <path d="M130.866 33.5084H129.995V28.7949C130.082 28.7949 130.256 28.7949 130.692 28.7949C131.04 28.7949 131.301 28.7949 131.388 28.7949C131.737 28.7949 131.997 28.795 132.259 28.8807C132.52 28.9664 132.694 29.052 132.868 29.2235C133.042 29.3949 133.13 29.5663 133.13 29.7376C133.216 29.9091 133.216 30.0805 133.216 30.3376C133.216 30.7661 133.042 31.1088 132.781 31.4517C132.433 31.7087 132.085 31.8802 131.475 31.8802C131.214 31.8802 130.953 31.8802 130.866 31.8802V33.5084ZM131.475 29.5663C131.388 29.5663 131.214 29.5663 130.866 29.5663V31.0232C131.127 31.0232 131.301 31.0232 131.475 31.0232C131.737 31.0232 131.997 30.9374 132.085 30.8517C132.259 30.7661 132.346 30.509 132.346 30.2518C132.346 29.7376 132.085 29.5663 131.475 29.5663Z" fill="black"/>
    <path d="M133.216 33.5084L135.219 28.7949H135.916L137.919 33.5084H137.048L136.526 32.3086H134.435L133.913 33.5084H133.216ZM135.568 29.8234L134.871 31.5373H136.264L135.568 29.8234Z" fill="black"/>
    <path d="M137.657 29.5663V28.7949H141.575V29.5663H140.008V33.5084H139.138V29.5663H137.657Z" fill="black"/>
    <path d="M141.837 31.1086C141.837 30.423 142.098 29.8231 142.533 29.3946C142.968 28.9661 143.578 28.709 144.361 28.709C145.058 28.709 145.668 28.9661 146.19 29.3946C146.626 29.8231 146.886 30.423 146.886 31.1943C146.886 31.8799 146.626 32.4797 146.19 32.9083C145.755 33.3368 145.145 33.5938 144.361 33.5938C143.665 33.5938 143.056 33.3368 142.533 32.9083C142.011 32.3941 141.837 31.8799 141.837 31.1086ZM142.707 31.1086C142.707 31.6227 142.882 31.9656 143.142 32.3083C143.491 32.6512 143.839 32.8226 144.275 32.8226C144.797 32.8226 145.145 32.6512 145.407 32.3083C145.668 31.9656 145.842 31.6227 145.842 31.1086C145.842 30.5944 145.668 30.2516 145.407 29.9088C145.058 29.566 144.709 29.4803 144.275 29.4803C143.839 29.4803 143.404 29.6517 143.142 29.9088C142.882 30.2516 142.707 30.5944 142.707 31.1086Z" fill="black"/>
    <path d="M148.628 33.5084H147.757V28.7949C147.844 28.7949 148.019 28.7949 148.453 28.7949C148.802 28.7949 149.063 28.7949 149.15 28.7949C149.498 28.7949 149.76 28.795 150.021 28.8807C150.282 28.9664 150.456 29.052 150.63 29.2235C150.805 29.3949 150.891 29.5663 150.891 29.7376C150.979 29.9091 150.979 30.0805 150.979 30.3376C150.979 30.7661 150.805 31.1088 150.543 31.4517C150.195 31.7087 149.846 31.8802 149.237 31.8802C148.976 31.8802 148.715 31.8802 148.628 31.8802V33.5084ZM149.237 29.5663C149.15 29.5663 148.976 29.5663 148.628 29.5663V31.0232C148.889 31.0232 149.063 31.0232 149.237 31.0232C149.498 31.0232 149.76 30.9374 149.846 30.8517C150.021 30.7661 150.108 30.509 150.108 30.2518C150.108 29.7376 149.76 29.5663 149.237 29.5663Z" fill="black"/>
</svg>
